<svg xmlns="http://www.w3.org/2000/svg" width="700" height="800" viewBox="0 0 700 800"><path d="M 404 62.157 C 402.625 62.707, 398.136 63.809, 394.023 64.605 C 389.911 65.402, 386.279 66.379, 385.951 66.777 C 382.635 70.805, 378.521 76.712, 375.001 82.500 C 372.660 86.350, 367.403 92.875, 363.319 97 C 359.236 101.125, 334.811 125.742, 309.041 151.704 C 265.976 195.091, 261.930 199.457, 258.991 205.704 C 256.599 210.788, 253.741 214.516, 247.647 220.502 C 242.710 225.351, 238.139 230.989, 236.046 234.812 C 234.146 238.281, 230.157 243.905, 227.181 247.310 C 219.089 256.568, 215.169 262.906, 211.488 272.680 C 209.662 277.531, 206.578 285.577, 204.635 290.560 C 199.584 303.518, 198.848 311.762, 199.079 352.788 L 199.277 388.076 196.972 390.529 C 195.705 391.878, 192.801 393.886, 190.518 394.991 C 186.796 396.793, 184.353 397, 166.824 397 C 149.130 397, 126.130 398.627, 112.218 400.863 C 108.897 401.396, 105.989 402.600, 104.385 404.106 C 101.165 407.126, 95.749 418.691, 91.788 431 C 90.107 436.225, 88.069 441.807, 87.260 443.405 C 86.451 445.003, 84.963 451.753, 83.954 458.405 C 82.946 465.057, 81.418 474.027, 80.560 478.338 C 79.389 484.220, 79 492.617, 79 511.982 C 79 547.890, 80.848 563.969, 86.468 576.942 C 94.450 595.369, 96.517 600.397, 99.445 608.500 C 103.573 619.925, 121.255 646.516, 129.081 653.068 C 131.892 655.421, 136.644 660.421, 139.643 664.179 C 143.277 668.733, 147.998 673.002, 153.797 676.977 C 158.584 680.258, 165.348 685.140, 168.829 687.826 C 173.045 691.078, 177.888 693.645, 183.329 695.511 C 193.649 699.051, 200.028 702.213, 204.213 705.864 C 206.021 707.441, 209.408 709.698, 211.741 710.881 C 217.175 713.636, 242.864 720.548, 259 723.596 C 265.875 724.894, 274.650 726.963, 278.500 728.192 C 285.382 730.390, 286.540 730.434, 347.367 730.757 L 409.234 731.086 417.367 728.402 C 421.840 726.926, 428.481 724.229, 432.125 722.409 C 435.769 720.590, 442.926 717.927, 448.030 716.491 C 458.545 713.535, 464.063 710.984, 468.710 706.931 C 473.593 702.672, 479.944 699.240, 488.032 696.489 C 495.995 693.781, 498.194 692.547, 505 686.973 C 507.475 684.945, 513.763 680.682, 518.972 677.499 C 524.857 673.904, 531.298 668.830, 535.976 664.106 C 540.119 659.923, 545.381 655.294, 547.669 653.820 C 549.958 652.346, 553.683 648.412, 555.947 645.079 C 558.210 641.745, 562.564 637.129, 565.622 634.820 C 568.680 632.511, 573.009 627.895, 575.242 624.561 C 577.475 621.228, 582.082 615.575, 585.479 612 C 591.969 605.170, 600.008 591.630, 601.957 584.246 C 602.574 581.906, 604.574 576.500, 606.401 572.231 C 613.254 556.220, 614.306 549.023, 614.764 515 C 615.135 487.468, 614.982 483.561, 613.187 474.847 C 612.094 469.538, 610.057 462.563, 608.662 459.347 C 603.055 446.426, 598.837 434.928, 596.498 426.191 C 593.625 415.454, 591.020 409.931, 586.403 404.786 C 582.782 400.751, 579.011 393.817, 577 387.500 C 575.001 381.218, 571.485 374.767, 567.428 369.939 C 564.099 365.977, 562.180 362.321, 553.546 343.500 C 552.285 340.750, 549.437 336.308, 547.217 333.628 C 544.896 330.826, 540.933 323.605, 537.888 316.628 C 531.972 303.075, 530.808 300.934, 526.771 296.189 C 525.222 294.369, 521.247 287.169, 517.937 280.189 C 513.313 270.437, 510.679 266.227, 506.561 262 C 500.564 255.844, 498.265 251.714, 495.151 241.500 C 493.977 237.650, 491.998 232.721, 490.753 230.547 C 488.440 226.507, 487.517 226.057, 467.891 219.387 C 466.714 218.987, 465.827 219.974, 464.596 223.052 C 462.594 228.056, 461.682 234.975, 459.026 265.320 C 457.142 286.850, 456.878 288.350, 454.369 291.841 C 452.906 293.876, 450.644 296.345, 449.342 297.327 C 447.039 299.064, 446.841 299.038, 441.919 296.359 C 439.138 294.846, 435.543 292.105, 433.931 290.269 C 431.066 287.005, 431 286.680, 430.980 275.715 C 430.963 265.858, 430.600 263.477, 427.980 256.048 C 425.399 248.729, 424.999 246.182, 424.992 237.048 C 424.983 225.391, 422.899 208.489, 420.425 200 C 419.429 196.585, 418.487 187.488, 417.937 176 C 417.451 165.825, 416.593 154.800, 416.032 151.500 C 415.471 148.200, 415.009 140.521, 415.006 134.436 C 415.003 128.351, 414.366 118.451, 413.592 112.436 C 412.817 106.421, 411.902 95.425, 411.558 88 C 410.714 69.793, 410.105 65.329, 408.155 63.072 C 406.816 61.521, 406.023 61.347, 404 62.157 M 324.741 323.748 C 321.201 327.443, 317.576 338.113, 313.952 355.500 C 311.393 367.777, 311.032 371.609, 311.017 386.636 C 311.002 401.422, 311.485 406.840, 314.535 426.136 C 318.230 449.516, 319.961 457.043, 323.017 463.034 C 325.009 466.938, 326.991 483.964, 326.997 497.220 C 327.002 509.813, 324.283 525.520, 320.542 534.500 C 318.710 538.900, 316.653 544.263, 315.972 546.419 C 313.958 552.790, 311.502 556.077, 302.771 564.084 C 293.395 572.682, 293.434 572.657, 280.226 578.116 C 248.894 591.064, 246.667 591.821, 235 593.498 C 228.675 594.407, 219.837 596.060, 215.360 597.171 C 208.544 598.862, 206.602 599.823, 203.422 603.080 L 199.623 606.970 202.062 609.576 C 203.403 611.009, 206.645 613.760, 209.266 615.688 C 211.888 617.616, 216.086 621.863, 218.596 625.125 C 221.106 628.387, 225.636 632.925, 228.661 635.209 C 231.687 637.494, 236.187 641.994, 238.661 645.209 C 241.136 648.425, 245.636 652.925, 248.661 655.209 C 251.687 657.494, 256.166 661.966, 258.614 665.148 C 261.063 668.330, 265.707 672.966, 268.936 675.451 C 272.164 677.935, 276.458 682.218, 278.477 684.968 C 283.981 692.466, 286.516 693.856, 297.450 695.369 C 305.154 696.436, 308.350 696.455, 313.766 695.469 C 317.469 694.795, 330.850 692.353, 343.500 690.044 C 356.150 687.734, 373.475 684.785, 382 683.491 C 407.258 679.655, 409.207 679.281, 416 676.967 C 425.853 673.610, 429.252 671.358, 433.036 665.684 C 434.937 662.833, 439.473 657.350, 443.116 653.500 C 446.759 649.650, 452.827 642, 456.601 636.500 C 460.375 631, 466.396 623.568, 469.981 619.985 C 474.126 615.842, 477.756 610.967, 479.950 606.596 C 481.848 602.816, 485.524 597.400, 488.119 594.560 C 490.714 591.720, 494.053 586.830, 495.539 583.692 C 497.025 580.554, 499.649 576.849, 501.370 575.458 C 503.092 574.067, 505.850 571.847, 507.500 570.523 C 510.398 568.199, 510.448 568.021, 508.965 565.308 C 507.499 562.627, 506.985 562.464, 497.585 561.693 C 486.601 560.794, 483.386 561.574, 475.372 567.088 C 470.081 570.728, 465.769 572.304, 455.182 574.463 C 447.077 576.116, 447.076 576.116, 443.981 573.828 C 441.980 572.349, 439.342 568.301, 436.516 562.374 C 434.112 557.332, 430.592 551.023, 428.693 548.354 C 424.030 541.799, 421.705 536.902, 419.046 528.027 C 416.614 519.912, 409.359 503.718, 406.112 499.157 C 404.998 497.592, 400.895 488.029, 396.994 477.906 C 393.094 467.783, 388.419 457.025, 386.607 454 C 382.357 446.907, 380.392 441.757, 377.969 431.369 C 375.693 421.607, 372.673 415.181, 367.428 408.939 C 362.941 403.600, 360.835 399.075, 357.959 388.587 C 355.229 378.633, 353.518 374.658, 347.275 363.777 C 344.522 358.979, 340.812 350.879, 339.031 345.777 C 335.493 335.644, 331.027 325.525, 328.848 322.705 C 327.538 321.010, 327.309 321.068, 324.741 323.748 " stroke="none" fill="black" fill-rule="evenodd" xmlns="http://www.w3.org/2000/svg"/><path stroke="black" stroke-width="1" d=""/></svg>