<svg version="1.1" xmlns="http://www.w3.org/2000/svg" xmlns:xlink="http://www.w3.org/1999/xlink" width="168.46604" height="213.71236" viewBox="0,0,168.46604,213.71236"><g transform="translate(-155.76698,-73.14382)"><g data-paper-data="{&quot;isPaintingLayer&quot;:true}" fill-rule="nonzero" stroke-linecap="butt" stroke-linejoin="miter" stroke-miterlimit="10" stroke-dasharray="" stroke-dashoffset="0" style="mix-blend-mode: normal"><path d="" fill="#000000" stroke="none" stroke-width="1"/><path d="" fill="#000000" stroke="none" stroke-width="1"/><path d="" fill="#000000" stroke="none" stroke-width="1"/><path d="" fill="#000000" stroke="#000000" stroke-width="1"/><g stroke="none"><path d="M283.26848,273.16607c-0.04329,0.01256 -0.08669,0.02475 -0.13021,0.0366c0.13371,-0.05503 0.26579,-0.11068 0.39425,-0.16508c-0.0885,0.05743 -0.17662,0.10312 -0.26404,0.12847z" fill="#000000" stroke-width="1"/><path d="M284.79739,271.83299c0,0 0.00695,-0.00579 0.0171,-0.01649c0.03666,0.03661 0.06345,0.08203 0.07879,0.13732c-0.0386,-0.0512 -0.09427,-0.07502 -0.1377,-0.0861c0.01397,-0.01157 0.0279,-0.02314 0.04181,-0.03473z" fill="#ffffff" stroke-width="0.5"/><path d="M283.53252,273.03759c-0.00344,0.00223 -0.00689,0.00444 -0.01033,0.00664c-0.10163,0.04285 -0.20605,0.0859 -0.31217,0.12878c0.10921,-0.0453 0.21708,-0.09078 0.3225,-0.13542z" fill="#ffffff" stroke-width="0.5"/><path d="M281.18446,272.75329l0.14193,-0.04685c0.17301,-0.06921 0.34604,-0.13841 0.51905,-0.20761c0.13718,-0.05481 0.89121,-0.41136 1.61671,-0.63237l-0.11304,0.09043c-0.65945,0.39473 -1.55252,0.67234 -2.33823,1.00288c0.0117,-0.15251 0.17358,-0.20648 0.17358,-0.20648z" fill="#ffffff" stroke-width="0.5"/><path d="M283.98146,271.84641c-0.01789,-0.03817 -0.04513,-0.07108 -0.07879,-0.09576c0.08951,-0.01909 0.17626,-0.03432 0.25883,-0.04474c-0.05954,0.04722 -0.11955,0.09409 -0.18004,0.14051z" fill="#ffffff" stroke-width="0.5"/><path d="M156.12624,205.93849c0.08628,-0.04313 0.15666,-0.0386 0.21116,-0.01567c0.14153,-1.05434 0.19896,-2.1711 0.1936,-2.8205c0.39452,-1.97259 0.69827,-3.93153 1.09117,-5.89725c0.39913,-1.99567 0.88053,-3.89558 1.6368,-5.78623c0.36053,-1.80269 1.46204,-3.98132 2.1747,-5.76297c0.02477,-0.12384 0.05905,-0.24584 0.09959,-0.36578c0.00323,-0.05797 0.02853,-0.10736 0.05019,-0.13962c0.0117,-0.0308 0.02374,-0.06146 0.03605,-0.09196l0.18189,-0.24629c0,0 0.06748,-0.08996 0.17295,-0.10777c0.98978,-1.24936 1.62945,-3.09269 3.33969,-3.46564c1.96972,-0.78466 4.33259,-0.69046 6.40982,-1.09694c1.94937,-0.00835 4.67425,0.27741 6.50039,-0.43149c2.02193,-0.02361 4.08329,-0.05909 6.1387,-0.05909c2.10461,0 4.13132,-0.33382 6.22647,-0.32493c0.04329,-0.00888 0.08658,-0.01774 0.12988,-0.02657c0.07744,-0.08344 0.19961,-0.08344 0.19961,-0.08344c1.62158,0.01081 3.09908,-2.41246 3.63181,-3.72653c1.27695,-1.72598 0.83631,-4.29962 0.83631,-6.34144c0.01053,-2.47057 -0.11704,-4.92788 0.38433,-7.4382c0.36551,-2.53524 0.23473,-5.11867 0.59495,-7.64018c0,-2.05217 -0.13317,-4.50453 0.20811,-6.56386c-0.10004,-0.07566 -0.10004,-0.21352 -0.10004,-0.21352c0,-2.07107 0.82839,-4.16045 0.81747,-6.17553c0.69525,-2.82874 2.00544,-5.2382 3.62167,-7.65653c1.04548,-2.0778 2.9096,-3.70589 4.30422,-5.56017c1.09881,-1.7873 2.98695,-3.54338 4.47762,-5.02728c0.7151,-0.95346 1.54419,-1.8588 2.39091,-2.71658c0.02602,-0.09132 0.10222,-0.14846 0.10222,-0.14846c0.05721,-0.04291 0.11492,-0.08566 0.17306,-0.12828l0.06486,-0.06487c0,0 0.04993,-0.04993 0.12386,-0.072c1.26895,-0.91105 2.71159,-1.77401 3.79647,-2.86384c1.64374,-1.6205 3.38881,-2.80851 5.13186,-4.31414c1.84319,-1.37669 3.18497,-2.56538 4.56235,-4.39155c0.95981,-1.91963 2.52278,-3.68447 3.71724,-5.46511c0.5305,-0.53456 0.71612,-1.71183 1.19112,-2.05801c1.39351,-1.01564 2.55835,-1.51425 3.69746,-2.93815c1.31205,-1.74982 2.20295,-3.87693 3.91469,-5.29094c-0.04116,-0.20113 0.16337,-0.28295 0.16337,-0.28295c0.04745,-0.01775 0.09514,-0.03831 0.14308,-0.06148c0.70831,-0.84657 1.48558,-1.58598 2.24787,-2.34785c0.53485,-0.75454 1.01574,-1.5094 1.37838,-1.98793c2.03494,-1.64629 3.22575,-3.20763 4.77456,-5.26298c1.46919,-1.47142 3.1661,-2.67102 4.6339,-4.14553c1.60684,-1.59461 3.71849,-2.27648 5.59594,-3.41017c0.36373,-0.21823 2.53279,-1.83879 2.81223,-1.77673c0.75852,0.16847 0.24837,2.40677 0.24837,2.97989c0,2.00909 0.1147,3.99546 0.10746,6.00899c0.42771,2.13856 -0.03454,4.38236 0.27245,6.53134c0.00402,2.1079 0.58974,4.17515 0.59871,6.27084c-0.00748,1.44308 0.3583,3.21627 0.64733,4.62426l0.00365,0.19289c0.00143,0.01342 0.00144,0.02156 0.00144,0.02156c-0.00007,0.01548 -0.00013,0.03103 -0.00014,0.04668l0.00014,0.00769c0,0 0,0.00182 -0.00016,0.00516c0.00006,1.60787 0.33236,4.12148 0.91354,5.57445c0.44694,2.19781 0.24614,4.48024 0.60801,6.68587c0,2.20248 0.21836,4.40569 0.21836,6.60008c0,0.69972 0,1.39945 0,2.09917c0.31346,1.94111 -0.01012,4.0483 0,6.0016c0,2.28936 0.1124,5.00755 0.48842,7.26365c0.00608,2.37288 0.41538,4.66567 0.70717,7.01874c-0.00549,1.87407 1.27775,4.19933 2.77725,5.29791c1.1467,0.86003 2.60905,1.63375 3.95783,2.19181c0.09818,-0.03707 0.19992,0.00362 0.19992,0.00362c1.8698,0.79039 3.0946,-0.90291 3.96939,-2.3315c1.06292,-2.12891 0.89079,-4.37037 0.89079,-6.72221c0,-2.46277 0.99142,-4.84729 0.97862,-7.28526c0.00647,-2.5219 0.27184,-5.06296 0.27184,-7.61146c0,-3.13672 3.63708,0.97327 4.87885,1.96653c1.92018,1.39688 4.12273,2.24289 4.55688,4.78222c0.43975,2.24854 1.52715,4.88926 2.38049,7.02492c0.79997,2.39734 2.576,4.0743 3.5065,6.40105c1.04392,2.37969 2.24881,4.30975 3.86787,6.33357c0.4499,1.10415 1.58133,1.51177 2.26667,2.42127l0.13878,0.13506c0,0 0.12455,0.12455 0.0672,0.27149c1.31532,1.61804 2.50473,2.77767 3.36034,4.76355c0.9555,2.55292 1.94983,4.75732 3.62238,6.97333c1.184,2.35925 2.84392,4.30485 3.77729,6.79725c0.74779,2.63046 1.24053,4.95893 2.47498,7.44707c1.1218,1.48732 2.09952,3.36604 3.05839,5.0238c0.05072,-0.06215 0.1499,-0.13805 0.30474,-0.06924c0.2393,0.10635 0.13294,0.34564 0.13294,0.34564l-0.15358,0.34556c1.24334,2.22086 1.84094,4.91281 2.71505,7.28587c1.00922,2.69126 2.18984,5.6205 2.89004,8.40024c0.65962,2.64341 1.63885,5.24017 1.63885,8.00119c0,0.99625 -0.06147,1.97357 0.31535,2.9156l0.01749,0.08582c0.03277,0.05113 0.04265,0.10055 0.04265,0.10055c0.3703,1.85151 0.11864,3.79706 0.11293,5.67282c-0.35237,2.11422 -0.32186,4.49387 -0.32659,6.63705c-0.38237,1.91189 -0.27056,4.27817 -0.27056,6.22647c0,2.19402 -0.17405,4.21258 -0.60313,6.358c-0.19471,0.96492 -0.58806,2.7023 -1.17021,3.5021l-0.09387,0.2408c0,0 -0.00506,0.01263 -0.01575,0.03099c-0.24457,1.50691 -1.73164,3.57867 -2.55439,4.67567c-0.69979,1.78854 -1.98588,4.47133 -3.52555,5.60523c-1.29588,1.61984 -3.22847,3.06448 -4.71442,4.55041c-1.19323,1.59097 -3.06399,3.1178 -4.47938,4.53431c-1.73694,1.44926 -3.25099,3.4272 -5.19539,4.59082c-1.60113,1.19456 -2.88848,3.43206 -4.7478,4.19728c-0.20696,0.15672 -0.44143,0.27471 -0.67343,0.39117l-0.28186,0.11299c0,0 -0.10646,0.04259 -0.20666,0.00094c-1.33089,0.84327 -3.03013,2.42307 -4.11363,3.49621c-2.0978,1.27478 -4.03214,2.3984 -6.23305,3.50268c-1.9465,1.16271 -4.32344,1.67525 -6.20755,2.83216c-1.9939,0.80374 -4.01128,2.04616 -6.12786,2.46203c-2.17884,0.93089 -4.81496,0.82521 -7.01648,1.74068c-1.98254,0.3965 -4.28449,0.80678 -6.17621,1.42104c-2.12491,0.01951 -4.20045,0.43831 -6.3486,0.43831c-1.82484,0 -4.87096,0.1269 -6.55822,0.80466c-1.61655,0.3268 -3.16096,0.22833 -4.80459,0.22833h-0.05437c0,0 -0.15899,0 -0.22919,-0.12388c-1.76809,0.67439 -4.05447,0.22266 -5.8694,-0.03989c-2.18734,-0.00155 -4.44224,-0.0833 -6.59996,-0.43735c-2.16972,-0.31387 -4.30734,-0.21967 -6.48105,-0.65442c-1.99684,-0.40295 -4.54688,-0.66187 -6.39464,-1.58575c-1.75502,-0.34265 -3.76389,-1.55897 -5.51132,-2.32659c-0.14979,0.13545 -0.32379,0.00494 -0.32379,0.00494c-0.10223,-0.08162 -0.22824,-0.16234 -0.3736,-0.24188l-0.00148,0.00368l-0.07112,-0.02844c0.00522,-0.00193 0.01045,-0.00388 0.01567,-0.00582c-1.33499,-0.70406 -4.15185,-1.3135 -5.33137,-1.65295c-2.33643,-1.32642 -4.83195,-2.30682 -7.15609,-3.70394c-2.63246,-1.19006 -4.9633,-3.1058 -7.56262,-4.41757c-1.2361,-0.98113 -2.40577,-2.12112 -3.65861,-3.05568l-0.19115,-0.18743c0,0 -0.01055,-0.01054 -0.02409,-0.02913c-2.22113,-0.51005 -3.54581,-1.67792 -5.42081,-2.92497c-1.88896,-1.13553 -4.0753,-3.19627 -5.44684,-4.89641c-1.51838,-1.89833 -3.60014,-2.70857 -4.97252,-4.98502c-1.08483,-2.16967 -2.89679,-3.63228 -4.30502,-5.54071c-1.79718,-1.34788 -3.16178,-4.0946 -3.75961,-6.18964c-0.43461,-1.084 -1.08098,-2.04912 -1.51764,-3.14077l-0.00719,-0.07901c-0.06592,-0.07696 -0.0659,-0.18135 -0.0659,-0.18135c0.00882,-2.07892 -1.01648,-4.70815 -1.83141,-6.59415c-0.85799,-2.57006 -0.72164,-5.09389 -1.10212,-7.72413c-0.34135,-2.73058 -0.75947,-5.49621 -0.76347,-8.24427c0.00375,-1.44486 -0.15691,-2.90371 -0.16311,-4.34941v-0.10241c-0.07478,-0.09329 -0.04928,-0.22078 -0.04928,-0.22078c0.28932,-1.40943 0.06432,-3.15801 -0.18146,-4.67831c-0.00981,0.02125 -0.01972,0.04207 -0.02975,0.06243c0,0 -0.11711,0.23421 -0.35132,0.1171c-0.23421,-0.11711 -0.11711,-0.35132 -0.11711,-0.35132c0.12094,-0.2377 0.22494,-0.55923 0.31342,-0.92863c-0.04708,-0.30081 -0.0725,-0.61087 -0.0738,-0.9115l-0.02672,0.00837c0,0 -0.11711,-0.23421 0.1171,-0.35132z" fill="#ff885d" stroke-width="0.5"/><path d="M167.86475,203.56556c0.0705,-0.03525 0.12801,-0.03154 0.17255,-0.01281c0.11565,-0.86155 0.16258,-1.77411 0.15821,-2.30477c0.32238,-1.61189 0.57059,-3.21265 0.89165,-4.81893c0.32615,-1.63076 0.71952,-3.18327 1.33751,-4.72821c0.29461,-1.47307 1.1947,-3.25333 1.77705,-4.7092c0.02024,-0.10119 0.04825,-0.20089 0.08138,-0.2989c0.00263,-0.04737 0.02331,-0.08773 0.04101,-0.11409c0.00956,-0.02516 0.0194,-0.05022 0.02946,-0.07515l0.14863,-0.20126c0,0 0.05514,-0.07351 0.14132,-0.08806c0.80879,-1.02092 1.33151,-2.52719 2.72902,-2.83195c1.60956,-0.64119 3.54037,-0.56421 5.23778,-0.89636c1.59293,-0.00682 3.81956,0.22669 5.31179,-0.35259c1.65222,-0.01929 3.33666,-0.04829 5.01623,-0.04829c1.71978,0 3.3759,-0.27278 5.08795,-0.26551c0.03538,-0.00726 0.07075,-0.0145 0.10614,-0.02171c0.06328,-0.06819 0.16311,-0.06819 0.16311,-0.06819c1.32507,0.00883 2.53242,-1.97134 2.96773,-3.04513c1.04346,-1.41039 0.68339,-3.51343 0.68339,-5.1819c0.00861,-2.01883 -0.09564,-4.02681 0.31406,-6.07812c0.29868,-2.07167 0.19181,-4.18272 0.48616,-6.24317c0,-1.67693 -0.10882,-3.68087 0.17005,-5.36365c-0.08174,-0.06183 -0.08174,-0.17448 -0.08174,-0.17448c0,-1.69237 0.67692,-3.39971 0.668,-5.04633c0.56812,-2.3115 1.63874,-4.28039 2.95944,-6.25653c0.85431,-1.69788 2.37758,-3.02826 3.51719,-4.54349c0.8979,-1.46049 2.44078,-2.89547 3.65888,-4.10804c0.58434,-0.77912 1.26183,-1.51891 1.95373,-2.21985c0.02126,-0.07462 0.08353,-0.12132 0.08353,-0.12132c0.04675,-0.03507 0.0939,-0.07 0.14141,-0.10483l0.053,-0.053c0,0 0.0408,-0.0408 0.10121,-0.05884c1.03692,-0.74446 2.21578,-1.44963 3.10228,-2.34018c1.34318,-1.32419 2.76916,-2.29497 4.19349,-3.5253c1.50616,-1.12496 2.60259,-2.0963 3.72812,-3.58855c0.78431,-1.56863 2.06149,-3.01076 3.03754,-4.46581c0.43349,-0.43681 0.58517,-1.39882 0.97332,-1.6817c1.13871,-0.82993 2.09056,-1.23738 3.02138,-2.40091c1.07214,-1.42987 1.80014,-3.16803 3.19888,-4.32348c-0.03363,-0.16436 0.1335,-0.23121 0.1335,-0.23121c0.03877,-0.01451 0.07774,-0.0313 0.11691,-0.05024c0.5788,-0.69177 1.21394,-1.29598 1.83685,-1.91854c0.43705,-0.61657 0.83001,-1.2334 1.12634,-1.62443c1.66285,-1.34526 2.63592,-2.62111 3.90153,-4.30064c1.20054,-1.20237 2.58717,-2.18262 3.78659,-3.38751c1.31303,-1.30303 3.03856,-1.86022 4.57271,-2.78662c0.29722,-0.17833 2.06967,-1.50257 2.29801,-1.45185c0.61983,0.13767 0.20295,1.96668 0.20295,2.43502c0,1.64172 0.09373,3.26489 0.08781,4.91024c0.3495,1.74752 -0.02822,3.58104 0.22263,5.33708c0.00329,1.72247 0.4819,3.41172 0.48923,5.12421c-0.00611,1.17921 0.29279,2.62816 0.52896,3.77871l0.00298,0.15762c0.00117,0.01096 0.00118,0.01762 0.00118,0.01762c-0.00006,0.01265 -0.00011,0.02536 -0.00012,0.03815l0.00012,0.00628c0,0 0,0.00149 -0.00013,0.00422c0.00005,1.31387 0.27158,3.36786 0.7465,4.55516c0.36522,1.79594 0.20114,3.66102 0.49684,5.46335c0,1.79975 0.17843,3.6001 0.17843,5.39324c0,0.57178 0,1.14356 0,1.71533c0.25614,1.58617 -0.00827,3.30807 0,4.9042c0,1.87075 0.09184,4.09191 0.39911,5.93549c0.00497,1.93899 0.33943,3.81255 0.57787,5.73536c-0.00449,1.53139 1.04411,3.43147 2.26942,4.32918c0.93702,0.70277 2.13198,1.33502 3.23414,1.79104c0.08023,-0.03029 0.16337,0.00296 0.16337,0.00296c1.5279,0.64586 2.52875,-0.73782 3.24358,-1.90518c0.86856,-1.73964 0.7279,-3.57125 0.7279,-5.49305c0,-2.01245 0.81014,-3.96096 0.79967,-5.95314c0.00529,-2.06077 0.22213,-4.13719 0.22213,-6.2197c0,-2.56317 2.97204,0.79531 3.98675,1.60694c1.56907,1.14146 3.36888,1.83278 3.72364,3.90779c0.35934,1.83739 1.24791,3.99525 1.94521,5.74041c0.6537,1.95899 2.10498,3.32931 2.86533,5.23061c0.85303,1.94456 1.83761,3.52171 3.16062,5.17547c0.36764,0.90225 1.29218,1.23534 1.85221,1.97854l0.1134,0.11036c0,0 0.10178,0.10178 0.05491,0.22185c1.07481,1.32218 2.04673,2.26977 2.7459,3.89253c0.78079,2.08612 1.59329,3.88744 2.96002,5.69825c0.96751,1.92785 2.32391,3.5177 3.08661,5.55436c0.61106,2.14948 1.0137,4.05218 2.02242,6.08537c0.91668,1.21536 1.71562,2.75056 2.49916,4.10519c0.04145,-0.05078 0.12249,-0.11281 0.24901,-0.05658c0.19554,0.0869 0.10863,0.28244 0.10863,0.28244l-0.1255,0.28238c1.01599,1.81478 1.50433,4.0145 2.21861,5.95364c0.82469,2.19916 1.78942,4.59279 2.36159,6.86425c0.539,2.16006 1.33918,4.282 1.33918,6.53816c0,0.81408 -0.05023,1.6127 0.25769,2.38248l0.01429,0.07013c0.02678,0.04178 0.03485,0.08217 0.03485,0.08217c0.30259,1.51296 0.09694,3.10276 0.09228,4.63553c-0.28794,1.72763 -0.26301,3.67217 -0.26687,5.42346c-0.31245,1.5623 -0.22109,3.4959 -0.22109,5.08795c0,1.79284 -0.14222,3.44231 -0.49284,5.19543c-0.15911,0.78848 -0.48053,2.20818 -0.95624,2.86174l-0.07671,0.19677c0,0 -0.00413,0.01032 -0.01286,0.02532c-0.19985,1.23137 -1.41501,2.92431 -2.08732,3.82072c-0.57183,1.4615 -1.62276,3.65374 -2.8809,4.58031c-1.05893,1.32365 -2.63814,2.50413 -3.85238,3.71836c-0.97504,1.30006 -2.50374,2.54771 -3.66032,3.7052c-1.41934,1.18426 -2.65654,2.80053 -4.24541,3.75138c-1.30836,0.97613 -2.36032,2.80451 -3.87966,3.4298c-0.16912,0.12806 -0.36071,0.22448 -0.55029,0.31964l-0.23032,0.09233c0,0 -0.08699,0.0348 -0.16887,0.00077c-1.08754,0.68908 -2.47607,1.98 -3.36145,2.85692c-1.71422,1.04168 -3.29485,1.95985 -5.09333,2.86221c-1.59058,0.95011 -3.53289,1.36893 -5.07249,2.31429c-1.62931,0.65678 -3.27781,1.67202 -5.00738,2.01184c-1.78043,0.76067 -3.93454,0.67433 -5.73351,1.4224c-1.62002,0.324 -3.50106,0.65925 -5.04688,1.1612c-1.73637,0.01594 -3.43239,0.35817 -5.18775,0.35817c-1.49117,0 -3.9803,0.1037 -5.35905,0.65753c-1.32096,0.26705 -2.58298,0.18658 -3.92607,0.18658h-0.04443c0,0 -0.12991,0 -0.18728,-0.10122c-1.44479,0.55108 -3.31311,0.18195 -4.79618,-0.03259c-1.78738,-0.00127 -3.62998,-0.06807 -5.39315,-0.35739c-1.77298,-0.25648 -3.51974,-0.1795 -5.29598,-0.53476c-1.63171,-0.32927 -3.71547,-0.54085 -5.22537,-1.2958c-1.43412,-0.28 -3.07566,-1.27392 -4.50357,-1.90117c-0.1224,0.11068 -0.26458,0.00404 -0.26458,0.00404c-0.08354,-0.0667 -0.18651,-0.13266 -0.30529,-0.19765l-0.00121,0.00301l-0.05811,-0.02324c0.00427,-0.00157 0.00854,-0.00317 0.01281,-0.00475c-1.09088,-0.57532 -3.39268,-1.07332 -4.35652,-1.3507c-1.90921,-1.08388 -3.94842,-1.88501 -5.84759,-3.02667c-2.15112,-0.97246 -4.05576,-2.5379 -6.17979,-3.60981c-1.01008,-0.80173 -1.96587,-1.73327 -2.98963,-2.49694l-0.1562,-0.15316c0,0 -0.00862,-0.00862 -0.01969,-0.02381c-1.81499,-0.41679 -2.89745,-1.3711 -4.42961,-2.39014c-1.54356,-0.9279 -3.33013,-2.61183 -4.45088,-4.0011c-1.24074,-1.55122 -2.94185,-2.21331 -4.06329,-4.0735c-0.88647,-1.77294 -2.3671,-2.96811 -3.51784,-4.52758c-1.46856,-1.10142 -2.58365,-3.3459 -3.07217,-5.05785c-0.35514,-0.88579 -0.88332,-1.67443 -1.24014,-2.56648l-0.00587,-0.06456c-0.05386,-0.06289 -0.05385,-0.1482 -0.05385,-0.1482c0.00721,-1.69879 -0.83061,-3.84726 -1.49653,-5.3884c-0.7011,-2.10012 -0.58969,-4.16246 -0.9006,-6.31177c-0.27893,-2.23129 -0.6206,-4.49122 -0.62387,-6.73679c0.00307,-1.18067 -0.12822,-2.37276 -0.13328,-3.55412v-0.08368c-0.0611,-0.07623 -0.04027,-0.18041 -0.04027,-0.18041c0.23641,-1.15171 0.05256,-2.58056 -0.14828,-3.82288c-0.00801,0.01737 -0.01611,0.03437 -0.02431,0.05101c0,0 -0.0957,0.19138 -0.28708,0.09569c-0.19138,-0.0957 -0.0957,-0.28708 -0.0957,-0.28708c0.09883,-0.19424 0.18381,-0.45697 0.25611,-0.75883c-0.03847,-0.2458 -0.05924,-0.49917 -0.0603,-0.74483l-0.02184,0.00684c0,0 -0.0957,-0.19138 0.09569,-0.28708z" fill="#ff6932" stroke-width="0.5"/><path d="M176.51034,218.58991c0.05734,-0.02867 0.10411,-0.02566 0.14033,-0.01041c0.09406,-0.70071 0.13223,-1.44289 0.12867,-1.87449c0.26219,-1.31097 0.46407,-2.61287 0.72518,-3.91927c0.26527,-1.32631 0.5852,-2.58898 1.08781,-3.84549c0.23961,-1.19805 0.97166,-2.64595 1.44529,-3.83003c0.01646,-0.0823 0.03925,-0.16339 0.06619,-0.24309c0.00214,-0.03852 0.01896,-0.07136 0.03335,-0.09279c0.00778,-0.02047 0.01577,-0.04084 0.02396,-0.06111l0.12088,-0.16368c0,0 0.04484,-0.05979 0.11494,-0.07162c0.6578,-0.83032 1.08293,-2.05538 2.21953,-2.30324c1.30906,-0.52148 2.87941,-0.45887 4.25993,-0.72902c1.29554,-0.00555 3.10648,0.18437 4.32012,-0.28677c1.34376,-0.01569 2.71374,-0.03928 4.07974,-0.03928c1.39871,0 2.74565,-0.22185 4.13807,-0.21595c0.02877,-0.00591 0.05755,-0.01179 0.08633,-0.01766c0.05147,-0.05546 0.13266,-0.05545 0.13266,-0.05545c1.07769,0.00718 2.05963,-1.60331 2.41368,-2.47663c0.84865,-1.14708 0.5558,-2.8575 0.5558,-4.21448c0.007,-1.64192 -0.07779,-3.27504 0.25543,-4.94338c0.24291,-1.6849 0.156,-3.40183 0.39539,-5.07762c0,-1.36386 -0.08851,-2.99368 0.13831,-4.3623c-0.06649,-0.05029 -0.06648,-0.14191 -0.06648,-0.14191c0,-1.37641 0.55055,-2.76501 0.54328,-4.10422c0.46206,-1.87996 1.3328,-3.48128 2.40695,-5.08848c0.69482,-1.3809 1.93371,-2.46291 2.86056,-3.69525c0.73027,-1.18782 1.98511,-2.35491 2.9758,-3.34109c0.47525,-0.63366 1.02626,-1.23534 1.58898,-1.80542c0.01729,-0.06069 0.06793,-0.09867 0.06793,-0.09867c0.03802,-0.02852 0.07637,-0.05693 0.11501,-0.08525l0.04311,-0.04311c0,0 0.03318,-0.03318 0.08232,-0.04785c0.84334,-0.60548 1.8021,-1.17899 2.52311,-1.90329c1.09242,-1.07698 2.25218,-1.86652 3.41061,-2.86715c1.22497,-0.91493 2.1167,-1.70493 3.03211,-2.91859c0.63789,-1.27577 1.67663,-2.44867 2.47045,-3.63208c0.35256,-0.35527 0.47593,-1.13767 0.79161,-1.36775c0.92613,-0.67498 1.70027,-1.00637 2.45731,-1.95268c0.87197,-1.16292 1.46406,-2.57658 2.60167,-3.51633c-0.02735,-0.13368 0.10857,-0.18804 0.10857,-0.18804c0.03153,-0.0118 0.06323,-0.02546 0.09508,-0.04086c0.47074,-0.56263 0.98731,-1.05403 1.49393,-1.56037c0.35546,-0.50145 0.67505,-1.00314 0.91605,-1.32116c1.35241,-1.09411 2.14382,-2.13177 3.17314,-3.49775c0.97641,-0.9779 2.10417,-1.77514 3.07966,-2.75509c1.0679,-1.05976 2.47128,-1.51293 3.71902,-2.26638c0.24174,-0.14504 1.68328,-1.22205 1.86899,-1.1808c0.50411,0.11196 0.16507,1.59952 0.16507,1.98042c0,1.33523 0.07623,2.65536 0.07142,3.99354c0.28426,1.42127 -0.02296,2.91249 0.18107,4.34069c0.00267,1.4009 0.39193,2.77479 0.3979,4.16756c-0.00497,0.95906 0.23812,2.13751 0.43021,3.07325l0.00242,0.1282c0.00095,0.00892 0.00095,0.01433 0.00095,0.01433c-0.00005,0.01028 -0.00009,0.02063 -0.0001,0.03103l0.0001,0.0051c0,0 0,0.00121 -0.0001,0.00342c0.00004,1.06858 0.22087,2.73911 0.60713,3.70475c0.29704,1.46065 0.16358,2.97753 0.40408,4.44339c0,1.46375 0.14512,2.92799 0.14512,4.38637c0,0.46503 0,0.93007 0,1.3951c0.20832,1.29005 -0.00672,2.69047 0,3.98862c0,1.52149 0.07469,3.32799 0.3246,4.82738c0.00404,1.577 0.27606,3.10077 0.46998,4.66461c-0.00365,1.24549 0.84918,2.79085 1.84574,3.52096c0.76208,0.57157 1.73395,1.08578 2.63035,1.45666c0.06525,-0.02464 0.13287,0.00241 0.13287,0.00241c1.24265,0.52528 2.05666,-0.60007 2.63803,-1.54951c0.70641,-1.41486 0.59201,-2.90452 0.59201,-4.46755c0,-1.63674 0.6589,-3.22148 0.65038,-4.84174c0.0043,-1.67604 0.18066,-3.36481 0.18066,-5.05853c0,-2.08464 2.41719,0.64683 3.24245,1.30693c1.27614,0.92836 2.73994,1.49061 3.02847,3.17823c0.29225,1.49437 1.01494,3.24937 1.58206,4.66872c0.53165,1.59326 1.71199,2.70776 2.3304,4.2541c0.69377,1.58153 1.49455,2.86424 2.57056,4.20924c0.29901,0.73381 1.05094,1.00472 1.50642,1.60916l0.09223,0.08976c0,0 0.08278,0.08278 0.04466,0.18044c0.87415,1.07534 1.66462,1.84601 2.23326,3.16582c0.63502,1.69665 1.29584,3.16168 2.40741,4.63442c0.78688,1.56794 1.89005,2.86097 2.51037,4.5174c0.49699,1.74819 0.82445,3.29567 1.64485,4.94927c0.74554,0.98846 1.39533,2.23706 2.03258,3.33878c0.03371,-0.04131 0.09962,-0.09175 0.20252,-0.04601c0.15904,0.07068 0.08835,0.22971 0.08835,0.22971l-0.10207,0.22966c0.82632,1.47597 1.22349,3.26502 1.80441,4.84214c0.67073,1.7886 1.45535,3.73535 1.9207,5.58275c0.43837,1.75678 1.08917,3.48258 1.08917,5.31754c0,0.66209 -0.04085,1.31162 0.20958,1.93769l0.01163,0.05703c0.02178,0.03398 0.02835,0.06683 0.02835,0.06683c0.2461,1.2305 0.07884,2.5235 0.07505,3.77011c-0.23418,1.4051 -0.21391,2.9866 -0.21705,4.41094c-0.25412,1.27063 -0.17982,2.84324 -0.17982,4.13807c0,1.45813 -0.11567,2.79966 -0.40084,4.22548c-0.12941,0.64127 -0.39082,1.79593 -0.77772,2.32747l-0.06239,0.16004c0,0 -0.00336,0.0084 -0.01046,0.02059c-0.16254,1.00149 -1.15084,2.37836 -1.69764,3.10742c-0.46507,1.18865 -1.3198,2.97162 -2.34306,3.72521c-0.86123,1.07654 -2.14562,2.03663 -3.13316,3.02417c-0.79301,1.05735 -2.03631,2.07207 -2.97697,3.01347c-1.15436,0.96317 -2.16058,2.2777 -3.45283,3.05103c-1.0641,0.79389 -1.91966,2.28093 -3.15536,2.78949c-0.13755,0.10415 -0.29337,0.18257 -0.44755,0.25998l-0.18732,0.07509c0,0 -0.07075,0.0283 -0.13735,0.00063c-0.8845,0.56043 -2.01381,1.61035 -2.73389,2.32356c-1.39419,0.84721 -2.67973,1.59396 -4.14245,2.32786c-1.29364,0.77273 -2.87333,1.11337 -4.1255,1.88223c-1.32513,0.53416 -2.66587,1.35987 -4.07254,1.63625c-1.44804,0.61865 -3.19999,0.54843 -4.6631,1.15685c-1.31759,0.26351 -2.84744,0.53617 -4.10466,0.94441c-1.4122,0.01297 -2.79159,0.2913 -4.21923,0.2913c-1.21278,0 -3.23721,0.08434 -4.35856,0.53477c-1.07434,0.21719 -2.10075,0.15174 -3.1931,0.15174h-0.03614c0,0 -0.10566,0 -0.15232,-0.08232c-1.17507,0.44819 -2.69457,0.14798 -3.90077,-0.02651c-1.45369,-0.00103 -2.95229,-0.05536 -4.3863,-0.29067c-1.44198,-0.20859 -2.86263,-0.14599 -4.30726,-0.43492c-1.32708,-0.2678 -3.02183,-0.43987 -4.24983,-1.05388c-1.16637,-0.22772 -2.50145,-1.03609 -3.66278,-1.54623c-0.09955,0.09002 -0.21519,0.00329 -0.21519,0.00329c-0.06794,-0.05425 -0.15169,-0.10789 -0.24829,-0.16075l-0.00098,0.00245l-0.04727,-0.01891c0.00347,-0.00129 0.00694,-0.00258 0.01042,-0.00386c-0.88723,-0.46791 -2.75929,-0.87294 -3.54319,-1.09854c-1.55278,-0.88153 -3.21128,-1.53309 -4.75589,-2.46161c-1.74952,-0.7909 -3.29857,-2.0641 -5.02607,-2.93589c-0.82151,-0.65205 -1.59885,-1.40968 -2.43149,-2.03078l-0.12704,-0.12456c0,0 -0.00701,-0.00701 -0.01601,-0.01936c-1.47615,-0.33897 -2.35652,-1.11512 -3.60263,-1.94392c-1.25539,-0.75468 -2.70842,-2.12422 -3.61994,-3.25412c-1.0091,-1.26162 -2.39263,-1.8001 -3.3047,-3.31301c-0.72097,-1.44195 -1.92518,-2.41398 -2.86109,-3.68232c-1.19439,-0.89579 -2.1013,-2.72124 -2.49862,-4.11359c-0.28884,-0.72042 -0.71841,-1.36183 -1.00861,-2.08733l-0.00478,-0.0525c-0.04381,-0.05115 -0.04381,-0.12053 -0.04381,-0.12053c0.00586,-1.38164 -0.67554,-3.129 -1.21714,-4.38243c-0.57022,-1.70805 -0.4796,-3.38537 -0.73247,-5.13341c-0.22685,-1.81473 -0.50474,-3.65275 -0.50739,-5.47909c0.0025,-0.96024 -0.10428,-1.92979 -0.10839,-2.89059v-0.06806c-0.0497,-0.062 -0.03275,-0.14673 -0.03275,-0.14673c0.19228,-0.93669 0.04274,-2.09879 -0.1206,-3.10918c-0.00652,0.01413 -0.01311,0.02796 -0.01977,0.04149c0,0 -0.07783,0.15565 -0.23349,0.07783c-0.15565,-0.07783 -0.07783,-0.23349 -0.07783,-0.23349c0.08038,-0.15797 0.14949,-0.37166 0.20829,-0.61716c-0.03129,-0.19991 -0.04819,-0.40598 -0.04904,-0.60577l-0.01776,0.00556c0,0 -0.07783,-0.15566 0.07783,-0.23349z" fill="#ff4400" stroke-width="0"/></g></g></g></svg>